# xmcd CD database file
#
# Track frame offsets:
#	150
#	14568
#	26706
#	35370
#	47538
#	59946
#	75288
#	85965
#	99296
#	114185
#	123173
#	136453
#	153235
#	167641
#
# Disc length: 2570 seconds
#
# Revision: 0
# Processed by: cddbd v1.5.2PL0 Copyright (c) Steve Scherf et al.
# Submitted via: CDex 1.51
#
DISCID=a70a080e
DTITLE=Max Wolff - I'm bonafide
DYEAR=2003
DGENRE=Blues
TTITLE0=My little sugar mama
TTITLE1=Peach pickin' time down in goeorgia
TTITLE2=Make me your brother
TTITLE3=The crow song
TTITLE4=San Francisco Bay blues
TTITLE5=Goodmorning little schoolgirl
TTITLE6=Christa's Rag
TTITLE7=Grinning in your face
TTITLE8=Hey porter
TTITLE9=That's my baby
TTITLE10=Come on im my kitchen
TTITLE11=I'm going home
TTITLE12=Red headed woman blues
TTITLE13=Goodnight Irene
EXTD=YEAR: 2003
EXTT0=
EXTT1=
EXTT2=
EXTT3=
EXTT4=
EXTT5=
EXTT6=
EXTT7=
EXTT8=
EXTT9=
EXTT10=
EXTT11=
EXTT12=
EXTT13=
PLAYORDER=
